<?xml version="1.0" encoding="UTF-8" standalone="no"?>
<svg
   xmlns:dc="http://purl.org/dc/elements/1.1/"
   xmlns:cc="http://creativecommons.org/ns#"
   xmlns:rdf="http://www.w3.org/1999/02/22-rdf-syntax-ns#"
   xmlns:svg="http://www.w3.org/2000/svg"
   xmlns="http://www.w3.org/2000/svg"
   xmlns:sodipodi="http://sodipodi.sourceforge.net/DTD/sodipodi-0.dtd"
   xmlns:inkscape="http://www.inkscape.org/namespaces/inkscape"
   width="210mm"
   height="297mm"
   viewBox="0 0 210 297"
   version="1.1"
   id="svg90"
   inkscape:version="1.0.1 (3bc2e813f5, 2020-09-07)"
   sodipodi:docname="minilutadorbase1.svg">
  <defs
     id="defs84" />
  <sodipodi:namedview
     id="base"
     pagecolor="#ffffff"
     bordercolor="#666666"
     borderopacity="1.0"
     inkscape:pageopacity="0.0"
     inkscape:pageshadow="2"
     inkscape:zoom="0.24748737"
     inkscape:cx="169.31583"
     inkscape:cy="724.70169"
     inkscape:document-units="mm"
     inkscape:current-layer="layer1"
     inkscape:document-rotation="0"
     showgrid="false"
     inkscape:window-width="776"
     inkscape:window-height="1040"
     inkscape:window-x="658"
     inkscape:window-y="56"
     inkscape:window-maximized="0"
     showguides="false" />
  <metadata
     id="metadata87">
    <rdf:RDF>
      <cc:Work
         rdf:about="">
        <dc:format>image/svg+xml</dc:format>
        <dc:type
           rdf:resource="http://purl.org/dc/dcmitype/StillImage" />
        <dc:title></dc:title>
      </cc:Work>
    </rdf:RDF>
  </metadata>
  <g
     inkscape:label="Layer 1"
     inkscape:groupmode="layer"
     id="layer1">
    <path
       style="fill:#000000;stroke-width:0.263793"
       d="M 63.900248,27.265956 C 60.72803,26.013531 56.363707,23.802334 54.46024,22.483146 l -1.360427,-0.942831 0.05195,-2.220556 c 0.0769,-3.286685 0.525628,-6.071356 1.344361,-8.342713 0.829903,-2.3023515 2.489133,-5.3238116 3.166286,-5.7658162 1.126549,-0.7353443 5.168802,-0.6706369 11.672131,0.1868397 l 2.191102,0.288899 -0.582999,0.7712146 C 68.19737,10.089769 66.63117,16.306848 66.599331,23.699118 c -0.01095,2.544277 -0.01992,4.62565 -0.01992,4.625278 0,-4.21e-4 -1.205621,-0.476671 -2.679158,-1.05844 z"
       id="path8" />
    <path
       style="fill:#000000;stroke-width:0.263793"
       d="m 68.119417,28.684989 c -0.304797,-0.320999 -0.436648,-1.306544 -0.506925,-3.789107 -0.108799,-3.843398 0.424106,-8.030035 1.497167,-11.762105 0.735256,-2.557208 2.543073,-6.1074506 3.492958,-6.8595711 0.508246,-0.4024322 0.620994,-0.406966 1.396281,-0.056197 1.445873,0.6541777 2.846398,2.3354098 3.490112,4.1896611 0.522442,1.504892 0.57196,2.080726 0.414245,4.81723 -0.387629,6.725813 -2.052802,10.927593 -5.081883,12.823296 -1.677123,1.049602 -4.009981,1.365545 -4.701955,0.636793 z"
       id="path10" />
    <path
       style="fill:#000000;stroke-width:0.263793"
       d="M 62.349158,36.634406 C 60.572372,36.024892 59.72636,35.459877 57.319217,33.275154 54.051668,30.309519 53.294435,28.923581 53.02312,25.412168 l -0.196554,-2.543826 1.815689,1.110514 c 2.127907,1.301474 7.477108,3.788902 10.125329,4.708379 1.278189,0.443786 1.854066,0.775225 1.853335,1.066654 -0.0035,1.382652 0.192386,1.868444 1.112607,2.759625 0.913164,0.88435 0.994698,1.076498 0.826453,1.947764 -0.305527,1.582231 -1.88432,2.518723 -4.184559,2.482133 -0.649116,-0.01034 -1.560934,-0.149381 -2.026262,-0.309005 z"
       id="path12" />
    <path
       style="fill:#000000;stroke-width:0.263793"
       d="M 64.424018,84.446631 64.323273,78.510758 63.262576,76.63419 C 61.102696,72.812974 57.552837,69.677576 54.098208,68.5398 51.896072,67.814523 48.76767,67.127045 46.769207,66.929221 L 45.114489,66.765422 44.600507,65.002983 C 44.317819,64.033639 43.69706,62.407776 43.221041,61.389949 42.382559,59.5971 42.3521,59.396621 42.244802,54.964573 l -0.110753,-4.574792 1.004836,-2.180283 c 0.552661,-1.199161 1.135203,-2.797306 1.294539,-3.551432 0.621759,-2.94274 0.16387,-9.184732 -0.794301,-10.828003 -0.308307,-0.528745 -1.138164,-1.427187 -1.84413,-1.996538 l -1.283576,-1.035181 1.471317,-0.821714 c 4.564681,-2.549308 9.608598,-4.935379 9.897881,-4.682279 0.09622,0.08418 0.174939,0.669577 0.174939,1.300878 0,2.666189 1.494857,5.010972 5.237478,8.215334 1.07467,0.920115 2.613038,1.957145 3.418596,2.304529 1.959036,0.844787 4.463025,1.040687 6.139966,0.480354 1.412058,-0.471822 2.686749,-1.627147 2.693304,-2.441096 0.01015,-1.260719 0.39948,-1.242546 2.622533,0.122355 2.613046,1.604347 2.550311,1.141636 1.181949,8.717715 -1.240087,6.865925 -1.239776,8.081258 0.0036,13.467519 1.169984,5.069131 2.00117,9.334409 2.263143,11.613541 l 0.188552,1.640282 -2.016926,2.43102 c -2.338255,2.8183 -4.396106,6.390911 -6.587914,11.437212 -0.854692,1.967793 -1.806184,4.077459 -2.114428,4.688156 l -0.560623,1.110348 -0.100742,-5.935867 z"
       id="path14" />
    <path
       style="fill:#000000;stroke-width:0.263793"
       d="M 86.633143,69.633138 C 84.862656,69.258294 78.01501,66.471589 76.927243,65.683243 76.368681,65.278425 76.075238,64.33743 74.856992,59.044408 73.53131,53.284583 73.449069,52.714266 73.611895,50.40979 73.825744,47.383252 75.325253,38.918944 75.5571,39.429631 c 0.818595,1.803099 2.032079,5.033608 3.131226,8.335904 3.41422,10.257678 5.460836,12.674382 11.567123,13.658786 1.015547,0.163719 1.846453,0.391721 1.846453,0.506674 0,0.114947 -0.339086,0.67869 -0.75352,1.252759 -0.978167,1.354943 -1.435867,2.723744 -1.671507,4.998876 -0.218037,2.105202 -0.136025,2.066124 -3.043732,1.450508 z"
       id="path16" />
    <path
       style="fill:#000000;stroke-width:0.263793"
       d="m 96.191144,70.457119 c -2.947074,-0.127376 -5.415187,-0.279969 -5.484686,-0.339106 -0.0695,-0.05912 0.01702,-1.101301 0.192229,-2.315944 0.235805,-1.634543 0.546407,-2.578304 1.19522,-3.63173 1.506347,-2.445709 1.166677,-2.304597 4.536609,-1.884636 1.619655,0.201845 3.928624,0.430256 5.131064,0.507589 l 2.18622,0.140597 2.46704,-1.367105 c 3.06753,-1.699847 3.84895,-2.013657 4.48364,-1.800562 0.44399,0.149065 0.42179,0.202995 -0.19352,0.470424 -0.38225,0.166127 -0.73386,0.537778 -0.78136,0.825899 -0.0475,0.288116 -0.32997,0.579587 -0.62774,0.647715 -0.29777,0.06813 -0.68716,0.440316 -0.86532,0.827075 -0.17816,0.386765 -0.45195,0.945639 -0.60843,1.241947 -0.15648,0.296309 -0.30633,0.740451 -0.33301,0.986979 -0.0267,0.246531 -0.21811,0.749041 -0.42542,1.116683 -0.32471,0.575839 -0.31271,0.754183 0.0866,1.287393 0.43812,0.585019 0.42671,0.691779 -0.20801,1.947509 -0.46689,0.923674 -0.87529,1.376275 -1.34008,1.48512 -0.79243,0.185571 -2.27396,0.162618 -9.411046,-0.145847 z"
       id="path18" />
    <path
       style="fill:#000000;stroke-width:0.263793"
       d="m 109.81684,67.582704 c -1.60109,-0.888395 -1.86943,-1.241058 -1.24715,-1.63917 0.33463,-0.214077 0.42515,-0.494174 0.30034,-0.929268 -0.13639,-0.475437 -0.0404,-0.687555 0.40549,-0.896349 0.36468,-0.170765 0.5594,-0.479358 0.51828,-0.821403 -0.0479,-0.398094 0.10294,-0.569109 0.55162,-0.625555 0.43194,-0.05435 0.64379,-0.277012 0.70504,-0.741044 0.0744,-0.56342 0.23771,-0.674398 1.08431,-0.736747 0.74951,-0.0552 1.29166,0.113496 2.18563,0.680097 0.65388,0.414433 1.18799,0.947122 1.1869,1.183763 -0.002,0.36124 -1.24118,2.148126 -3.25101,4.686612 -0.57132,0.721593 -0.88638,0.700809 -2.43945,-0.160936 z"
       id="path20" />
    <path
       style="fill:#000000;stroke-width:0.263793"
       d="m 31.397845,67.374043 -4.159743,-0.0754 0.002,-6.963953 c 0.0023,-8.107763 0.289515,-10.281545 1.832476,-13.870084 1.790157,-4.163459 4.617793,-9.789239 5.768272,-11.476381 1.086205,-1.592885 2.839677,-3.25794 3.708247,-3.521266 0.588127,-0.178299 3.474595,1.792415 4.049159,2.764534 0.930093,1.573652 1.331328,7.753467 0.677143,10.429333 -0.524216,2.144235 -2.285509,5.369928 -4.102753,7.513905 -3.03007,3.574866 -2.986837,3.426583 -2.869418,9.841609 0.08827,4.822487 0.04644,5.535157 -0.322096,5.487681 -0.232945,-0.03002 -2.295422,-0.0885 -4.583281,-0.129973 z"
       id="path22" />
    <path
       style="fill:#000000;stroke-width:0.263793"
       d="m 37.390697,77.029484 c 0,-0.394559 -0.325421,-0.389184 -1.471952,0.02429 -0.953282,0.34378 -3.216549,-2.553801 -3.895988,-4.9879 -0.160351,-0.574458 -0.52034,-1.151599 -0.799976,-1.282539 -0.279636,-0.13094 -0.998925,-0.761793 -1.598419,-1.401897 l -1.089991,-1.163823 3.606196,0.159907 3.606195,0.159913 2.345499,1.863082 c 1.290024,1.024695 2.563542,2.265115 2.83004,2.75648 0.477347,0.880126 0.47475,0.899847 -0.174983,1.328646 -0.530118,0.349859 -0.643627,0.627926 -0.578497,1.417156 0.08463,1.025519 -0.341289,1.535644 -0.884986,1.059943 -0.44945,-0.393234 -1.04709,-0.338716 -1.04709,0.09552 0,0.203568 -0.19036,0.370118 -0.423024,0.370118 -0.232663,0 -0.423024,-0.1795 -0.423024,-0.39889 z"
       id="path24" />
    <path
       style="fill:#000000;stroke-width:0.263793"
       d="m 48.693665,119.70986 c -1.588463,-0.48651 -3.276087,-1.3992 -4.539716,-2.45511 l -0.992203,-0.82912 0.370116,-3.64525 c 0.625565,-6.16118 0.305839,-13.955647 -0.898508,-21.904389 -1.131826,-7.470104 -1.199969,-8.914877 -0.570243,-12.090506 0.355106,-1.790768 1.952763,-7.674868 2.830603,-10.424986 0.229219,-0.718102 0.847307,-0.712507 4.648806,0.04199 5.291849,1.050353 8.37407,2.845932 11.2536,6.555897 2.44709,3.152812 2.540096,3.553934 2.540096,10.95499 0,6.477787 -0.0047,6.528777 -0.706861,7.715695 -1.012079,1.710714 -1.472429,3.979858 -1.962456,9.673269 -0.644735,7.4909 -1.71124,11.38345 -3.971613,14.49565 -1.395241,1.92104 -2.204795,2.31957 -4.683265,2.30548 -1.139375,-0.007 -2.632634,-0.18361 -3.318356,-0.39365 z"
       id="path26" />
    <path
       style="fill:#000000;stroke-width:0.263793"
       d="m 87.948132,109.56693 c -1.113953,-0.5334 -8.09787,-5.51482 -13.754277,-9.81052 -3.289687,-2.498314 -8.648421,-6.449108 -9.406545,-6.935088 -0.055,-0.03524 0.794452,-1.930836 1.887668,-4.212399 1.093216,-2.281576 2.45304,-5.203139 3.021831,-6.492377 0.568791,-1.289245 1.35363,-2.899261 1.744094,-3.577813 0.704474,-1.224238 4.335239,-6.117919 5.000101,-6.73931 0.562782,-0.525995 1.828906,0.617039 3.978836,3.592025 1.054806,1.459584 4.928143,6.655599 8.607416,11.546688 3.679279,4.891093 8.103129,10.93499 9.830761,13.430884 2.917353,4.21465 3.135193,4.6171 3.057313,5.64816 l -0.0839,1.11015 -6.204362,1.4335 c -3.4124,0.78842 -6.333247,1.43448 -6.490777,1.4357 -0.157536,10e-4 -0.692216,-0.19211 -1.188199,-0.4296 z"
       id="path28" />
    <path
       style="fill:#000000;stroke-width:0.263793"
       d="m 97.581668,142.53107 -0.01958,-2.79955 -1.848572,-4.31804 c -2.429545,-5.67515 -3.463443,-8.53869 -4.153326,-11.50335 -0.555166,-2.38571 -1.13737,-8.21818 -1.146043,-11.48086 l -0.0042,-1.64076 2.185627,-0.40919 c 2.178527,-0.40786 7.686186,-1.68243 8.576836,-1.98484 0.39988,-0.13577 0.49488,0.0885 0.6456,1.52445 0.0972,0.92601 0.61495,5.2923 1.15054,9.70286 1.52934,12.59369 2.13693,18.34686 2.19423,20.77683 l 0.053,2.24828 -2.71047,1.2137 c -1.49075,0.66753 -3.203999,1.27137 -3.807211,1.34185 l -1.096753,0.12816 z"
       id="path30" />
    <path
       style="fill:#000000;stroke-width:0.263793"
       d="m 96.959875,150.52743 0.07732,-4.13216 1.642628,-0.1793 c 1.158474,-0.12645 2.465077,-0.55562 4.433117,-1.45609 1.97331,-0.90288 2.89626,-1.20571 3.15166,-1.03407 0.19865,0.1335 1.4351,0.99276 2.74769,1.90948 2.94147,2.05432 4.04663,2.5509 8.56475,3.84834 2.87462,0.82549 3.67995,1.16042 4.13524,1.71985 0.61251,0.75261 0.74596,2.20639 0.27346,2.97885 -0.28183,0.46076 -0.72111,0.47727 -12.69756,0.47727 H 96.882549 Z"
       id="path32" />
    <path
       style="fill:#000000;stroke-width:0.263793"
       d="m 38.377755,143.81093 c -2.215119,-0.93182 -2.246075,-0.98366 -1.728245,-2.8946 0.490357,-1.80957 0.833537,-4.6377 1.301629,-10.72664 0.349548,-4.54692 0.98978,-6.9944 2.538532,-9.70429 1.770875,-3.09855 1.721758,-3.06742 3.151024,-1.99703 1.993173,1.49271 6.010583,2.84535 8.485364,2.85699 0.426551,0.002 0.775548,0.10836 0.775548,0.23636 0,0.52319 -1.819197,4.94285 -2.697227,6.55278 -0.518096,0.94997 -1.716523,2.77009 -2.663172,4.04472 -2.744511,3.69537 -3.049443,4.35896 -3.66922,7.98491 -0.45472,2.66031 -0.669489,3.34892 -1.154092,3.70037 -0.797834,0.57861 -2.898969,0.55268 -4.340141,-0.0536 z"
       id="path34" />
    <path
       style="fill:#000000;stroke-width:0.263793"
       d="m 36.824838,153.93557 c -1.352578,-0.35998 -2.497496,-1.00093 -2.67831,-1.49938 -0.100078,-0.27588 0.0137,-0.97107 0.25285,-1.54486 0.239145,-0.57379 0.571509,-2.31102 0.738587,-3.86051 0.167077,-1.5495 0.35812,-2.89419 0.42454,-2.98822 0.06642,-0.094 0.786973,0.1175 1.601227,0.47007 1.173939,0.50833 1.898311,0.64169 3.498619,0.64415 l 2.01816,0.003 0.325594,2.02776 c 0.179078,1.11526 0.511759,2.48941 0.739292,3.05365 0.227533,0.56424 0.413695,1.4577 0.413695,1.98548 0,0.81781 -0.13541,1.03182 -0.916552,1.44852 -0.734638,0.3919 -1.392336,0.48492 -3.313694,0.46866 -1.318428,-0.0111 -2.715231,-0.10495 -3.104008,-0.20841 z"
       id="path36" />
  </g>
</svg>
