<?xml version="1.0" encoding="UTF-8" standalone="no"?>
<svg
   xmlns:dc="http://purl.org/dc/elements/1.1/"
   xmlns:cc="http://creativecommons.org/ns#"
   xmlns:rdf="http://www.w3.org/1999/02/22-rdf-syntax-ns#"
   xmlns:svg="http://www.w3.org/2000/svg"
   xmlns="http://www.w3.org/2000/svg"
   xmlns:sodipodi="http://sodipodi.sourceforge.net/DTD/sodipodi-0.dtd"
   xmlns:inkscape="http://www.inkscape.org/namespaces/inkscape"
   width="210mm"
   height="297mm"
   viewBox="0 0 210 297"
   version="1.1"
   id="svg90"
   inkscape:version="1.0.1 (3bc2e813f5, 2020-09-07)"
   sodipodi:docname="minilutadorbase2.svg">
  <defs
     id="defs84" />
  <sodipodi:namedview
     id="base"
     pagecolor="#ffffff"
     bordercolor="#666666"
     borderopacity="1.0"
     inkscape:pageopacity="0.0"
     inkscape:pageshadow="2"
     inkscape:zoom="0.24748737"
     inkscape:cx="272.18294"
     inkscape:cy="675.76636"
     inkscape:document-units="mm"
     inkscape:current-layer="layer1"
     inkscape:document-rotation="0"
     showgrid="false"
     inkscape:window-width="740"
     inkscape:window-height="1040"
     inkscape:window-x="1120"
     inkscape:window-y="46"
     inkscape:window-maximized="0" />
  <metadata
     id="metadata87">
    <rdf:RDF>
      <cc:Work
         rdf:about="">
        <dc:format>image/svg+xml</dc:format>
        <dc:type
           rdf:resource="http://purl.org/dc/dcmitype/StillImage" />
        <dc:title></dc:title>
      </cc:Work>
    </rdf:RDF>
  </metadata>
  <g
     inkscape:label="Layer 1"
     inkscape:groupmode="layer"
     id="layer1">
    <path
       style="fill:#000000;stroke-width:0.269162"
       d="m 148.51531,27.426808 c 3.27928,-1.261354 7.7909,-3.488314 9.75861,-4.816906 l 1.40633,-0.949554 -0.0537,-2.236386 c -0.0795,-3.310117 -0.54337,-6.114641 -1.38973,-8.402191 -0.85791,-2.3187656 -2.57314,-5.3617665 -3.27315,-5.8069223 -1.16457,-0.7405868 -5.34324,-0.675418 -12.06605,0.1881717 l -2.26505,0.2909587 0.60267,0.7767128 c 2.83793,3.6574771 4.45699,9.9188781 4.4899,17.3638501 0.0113,2.562416 0.0206,4.658627 0.0206,4.658253 0,-4.24e-4 1.2463,-0.480069 2.76958,-1.065987 z"
       id="path8" />
    <path
       style="fill:#000000;stroke-width:0.269162"
       d="m 144.15375,28.855959 c 0.31508,-0.323288 0.45139,-1.315859 0.52403,-3.816121 0.11248,-3.870797 -0.43842,-8.087283 -1.54769,-11.84596 -0.76007,-2.57544 -2.6289,-6.1509923 -3.61084,-6.908475 -0.5254,-0.4053012 -0.64195,-0.4098673 -1.44341,-0.056597 -1.49467,0.6588416 -2.94246,2.3520597 -3.6079,4.219531 -0.54007,1.51562 -0.59126,2.095559 -0.42822,4.851573 0.40071,6.773762 2.12208,11.005499 5.25339,12.914717 1.73372,1.057085 4.14531,1.375278 4.86064,0.641332 z"
       id="path10" />
    <path
       style="fill:#000000;stroke-width:0.269162"
       d="m 150.11875,36.86205 c 1.83675,-0.61386 2.71132,-1.182903 5.1997,-3.383202 3.37782,-2.986778 4.16061,-4.382597 4.44108,-7.919043 l 0.20319,-2.561962 -1.87697,1.118432 c -2.19972,1.310752 -7.72945,3.815913 -10.46704,4.741946 -1.32133,0.44695 -1.91664,0.780752 -1.91589,1.074257 0.004,1.392512 -0.19887,1.881765 -1.15015,2.779299 -0.94399,0.890657 -1.02827,1.084173 -0.85435,1.961653 0.31584,1.59351 1.94791,2.536677 4.32579,2.499828 0.67102,-0.01041 1.61361,-0.150447 2.09464,-0.311208 z"
       id="path12" />
    <path
       style="fill:#000000;stroke-width:0.269162"
       d="m 147.97387,85.01514 0.10414,-5.97819 1.0965,-1.889948 c 2.23277,-3.848457 5.90243,-7.00621 9.47365,-8.152097 2.27646,-0.730447 5.51044,-1.422826 7.57635,-1.62206 l 1.71056,-0.164967 0.53133,-1.775004 c 0.29223,-0.976255 0.93394,-2.61371 1.42602,-3.638793 0.86678,-1.805631 0.89827,-2.007538 1.00919,-6.471185 l 0.11449,-4.607406 -1.03875,-2.195826 c -0.57131,-1.207711 -1.17351,-2.817249 -1.33823,-3.576752 -0.64274,-2.963721 -0.1694,-9.250211 0.82111,-10.905199 0.31872,-0.532514 1.17658,-1.437361 1.90637,-2.010771 l 1.32689,-1.042561 -1.52097,-0.827571 c -4.71873,-2.567485 -9.93288,-4.970568 -10.23192,-4.715663 -0.0995,0.08479 -0.18084,0.674351 -0.18084,1.310153 0,2.685199 -1.54531,5.046697 -5.41425,8.273903 -1.11093,0.926676 -2.70122,1.971099 -3.53397,2.32096 -2.02514,0.85081 -4.61364,1.048105 -6.34718,0.483777 -1.45971,-0.475185 -2.77742,-1.638747 -2.7842,-2.458499 -0.0105,-1.269707 -0.41296,-1.251404 -2.71104,0.123228 -2.70123,1.615785 -2.63638,1.149775 -1.22184,8.779866 1.28194,6.914873 1.28162,8.138872 -0.004,13.563532 -1.20947,5.10527 -2.06871,9.400958 -2.33952,11.696338 l -0.19492,1.651975 2.085,2.448351 c 2.41716,2.838394 4.54447,6.436475 6.81025,11.518752 0.88354,1.981821 1.86714,4.106528 2.18578,4.721578 l 0.57955,1.118265 0.10414,-5.978186 z"
       id="path14" />
    <path
       style="fill:#000000;stroke-width:0.269162"
       d="m 125.01521,70.096038 c 1.83023,-0.377516 8.90898,-3.184088 10.03346,-3.978054 0.57741,-0.407704 0.88076,-1.355408 2.14012,-6.686165 1.37042,-5.800889 1.45544,-6.375272 1.28712,-8.696177 -0.22107,-3.048115 -1.77119,-11.572769 -2.01086,-11.058439 -0.84622,1.815953 -2.10066,5.069494 -3.2369,8.395332 -3.52944,10.330807 -5.64513,12.764741 -11.9575,13.756164 -1.04982,0.164885 -1.90877,0.394513 -1.90877,0.510286 0,0.115767 0.35053,0.683529 0.77895,1.26169 1.01118,1.364602 1.48433,2.743162 1.72792,5.034515 0.2254,2.12021 0.14062,2.080854 3.14646,1.460848 z"
       id="path16" />
    <path
       style="fill:#000000;stroke-width:0.269162"
       d="m 115.13463,70.925894 c 3.04654,-0.128284 5.59795,-0.281965 5.66979,-0.341523 0.0719,-0.05954 -0.0176,-1.109153 -0.19872,-2.332455 -0.24376,-1.646196 -0.56484,-2.596687 -1.23555,-3.657623 -1.55719,-2.463144 -1.20605,-2.321026 -4.68972,-1.898071 -1.67432,0.203283 -4.06121,0.433324 -5.30423,0.511207 l -2.26,0.141598 -2.55031,-1.37685 c -3.17105,-1.711965 -3.97884,-2.028012 -4.634956,-1.813398 -0.458965,0.150128 -0.436026,0.204442 0.200056,0.473777 0.39515,0.167311 0.75863,0.541612 0.80773,0.831788 0.0491,0.29017 0.34111,0.583719 0.64892,0.652331 0.30782,0.06862 0.71035,0.443455 0.89453,0.832972 0.18417,0.389522 0.46721,0.952381 0.62896,1.250802 0.16176,0.298422 0.31667,0.745729 0.34425,0.994014 0.0276,0.24829 0.22547,0.754382 0.43978,1.124646 0.33567,0.579943 0.32326,0.759559 -0.0895,1.296571 -0.4529,0.589189 -0.44111,0.69671 0.21504,1.961394 0.48264,0.930258 0.90482,1.386085 1.3853,1.495707 0.81918,0.186894 2.3507,0.163777 9.72866,-0.146887 z"
       id="path18" />
    <path
       style="fill:#000000;stroke-width:0.269162"
       d="m 101.04908,68.030987 c 1.65513,-0.894729 1.93252,-1.249906 1.28925,-1.650858 -0.34593,-0.215603 -0.4395,-0.497697 -0.31048,-0.935893 0.14099,-0.478825 0.0418,-0.692456 -0.41917,-0.902738 -0.377,-0.171982 -0.57829,-0.482776 -0.53578,-0.82726 0.0495,-0.400931 -0.10641,-0.573165 -0.57023,-0.630013 -0.44652,-0.05474 -0.665521,-0.278988 -0.728843,-0.746327 -0.07688,-0.567438 -0.245728,-0.679208 -1.120906,-0.742 -0.774802,-0.05559 -1.335243,0.114304 -2.259389,0.684945 -0.675944,0.417388 -1.228083,0.953875 -1.22696,1.192203 0.0019,0.363815 1.283074,2.16344 3.360735,4.720023 0.590603,0.726739 0.91629,0.705806 2.521773,-0.162082 z"
       id="path20" />
    <path
       style="fill:#000000;stroke-width:0.269162"
       d="m 182.11464,67.820838 4.30013,-0.07594 -0.002,-7.013601 c -0.002,-8.165566 -0.29929,-10.354845 -1.89432,-13.968968 -1.85058,-4.193141 -4.77364,-9.859029 -5.96295,-11.558199 -1.12286,-1.604241 -2.93551,-3.281167 -3.83339,-3.54637 -0.60798,-0.179571 -3.59186,1.805193 -4.18582,2.784244 -0.96148,1.584871 -1.37626,7.808743 -0.69999,10.503686 0.5419,2.159522 2.36264,5.408212 4.24121,7.567474 3.13234,3.600352 3.08764,3.451012 2.96626,9.911772 -0.0912,4.856867 -0.048,5.574618 0.33297,5.526804 0.24081,-0.03024 2.37289,-0.08913 4.73796,-0.1309 z"
       id="path22" />
    <path
       style="fill:#000000;stroke-width:0.269162"
       d="m 175.91954,77.545115 c 0,-0.397372 0.3364,-0.391958 1.52163,0.02447 0.98545,0.34623 3.3251,-2.572009 4.02747,-5.023461 0.16576,-0.578553 0.5379,-1.15981 0.82697,-1.291684 0.28908,-0.131873 1.03264,-0.767223 1.65236,-1.41189 l 1.12679,-1.17212 -3.72791,0.161047 -3.7279,0.161052 -2.42466,1.876366 c -1.33355,1.032 -2.65005,2.281262 -2.92555,2.776131 -0.49346,0.886401 -0.49077,0.906262 0.1809,1.338117 0.548,0.352355 0.66534,0.632404 0.59802,1.42726 -0.0875,1.03283 0.3528,1.546592 0.91485,1.067499 0.46462,-0.396037 1.08242,-0.341131 1.08242,0.0962 0,0.205019 0.19679,0.372757 0.4373,0.372757 0.24052,0 0.43731,-0.18078 0.43731,-0.401735 z"
       id="path24" />
    <path
       style="fill:#000000;stroke-width:0.269162"
       d="m 164.2351,120.52977 c 1.64208,-0.48998 3.38665,-1.40917 4.69293,-2.47261 l 1.02569,-0.83503 -0.38261,-3.67124 c -0.64667,-6.2051 -0.31616,-14.055142 0.92883,-22.060552 1.17003,-7.523361 1.24047,-8.978435 0.58949,-12.176703 -0.36709,-1.803534 -2.01866,-7.729584 -2.92613,-10.499309 -0.23695,-0.72322 -0.8759,-0.717585 -4.8057,0.04229 -5.47045,1.057841 -8.65668,2.866222 -11.6334,6.602636 -2.52968,3.175291 -2.62582,3.579271 -2.62582,11.033092 0,6.523969 0.005,6.575322 0.73072,7.770702 1.04623,1.722911 1.52212,4.008232 2.02869,9.742234 0.66649,7.5443 1.76899,11.4646 4.10565,14.59899 1.44233,1.93474 2.2792,2.33611 4.84132,2.32191 1.17782,-0.007 2.72148,-0.18492 3.43034,-0.39644 z"
       id="path26" />
    <path
       style="fill:#000000;stroke-width:0.269162"
       d="m 123.65584,110.31453 c 1.15155,-0.5372 8.37116,-5.55414 14.21847,-9.88046 3.40071,-2.516127 8.94029,-6.495088 9.72401,-6.984533 0.0568,-0.03549 -0.82127,-1.944602 -1.95138,-4.242429 -1.13011,-2.297843 -2.53583,-5.240234 -3.12381,-6.538665 -0.58799,-1.298436 -1.39932,-2.919929 -1.80296,-3.603319 -0.72825,-1.232965 -4.48155,-6.161535 -5.16885,-6.787356 -0.58178,-0.529745 -1.89063,0.621438 -4.11312,3.617633 -1.0904,1.469991 -5.09446,6.703049 -8.89791,11.629008 -3.80345,4.925963 -8.3766,11.012947 -10.16254,13.526641 -3.01581,4.24469 -3.241,4.65001 -3.16049,5.68842 l 0.0867,1.11807 6.41375,1.44372 c 3.52757,0.79403 6.54699,1.44471 6.70984,1.44593 0.16285,10e-4 0.71558,-0.19347 1.2283,-0.43266 z"
       id="path28" />
    <path
       style="fill:#000000;stroke-width:0.269162"
       d="m 113.69718,143.51368 0.0202,-2.81951 1.91096,-4.34882 c 2.51154,-5.71561 3.58033,-8.59957 4.2935,-11.58536 0.5739,-2.40272 1.17575,-8.27677 1.18472,-11.56271 l 0.004,-1.65246 -2.25939,-0.41211 c -2.25205,-0.41077 -7.94559,-1.69442 -8.8663,-1.99899 -0.41337,-0.13674 -0.51157,0.0892 -0.66738,1.53532 -0.10049,0.93261 -0.63571,5.33003 -1.18938,9.77204 -1.58095,12.68347 -2.20904,18.47766 -2.26828,20.92494 l -0.0548,2.26431 2.80195,1.22236 c 1.54106,0.67229 3.31213,1.28043 3.9357,1.35142 l 1.13377,0.12907 z"
       id="path30" />
    <path
       style="fill:#000000;stroke-width:0.269162"
       d="m 114.33996,151.56705 -0.0799,-4.16163 -1.69806,-0.18057 c -1.19757,-0.12735 -2.54828,-0.55958 -4.58274,-1.46647 -2.03991,-0.90932 -2.994,-1.21431 -3.25801,-1.04144 -0.20535,0.13445 -1.48355,0.99983 -2.84043,1.92309 -3.040749,2.06897 -4.1832,2.56908 -8.853808,3.87578 -2.971635,0.83137 -3.80413,1.16869 -4.274785,1.73211 -0.63318,0.75797 -0.771143,2.22212 -0.282695,3.00009 0.291348,0.46404 0.74545,0.48067 13.126098,0.48067 h 12.82429 z"
       id="path32" />
    <path
       style="fill:#000000;stroke-width:0.269162"
       d="m 174.89917,144.80267 c 2.28988,-0.93847 2.32188,-0.99068 1.78657,-2.91525 -0.50691,-1.82246 -0.86167,-4.67075 -1.34556,-10.8031 -0.36135,-4.57934 -1.02318,-7.04427 -2.6242,-9.77348 -1.83064,-3.12064 -1.77987,-3.08928 -3.25737,-2.01126 -2.06044,1.50334 -6.21344,2.86563 -8.77174,2.87735 -0.44094,0.002 -0.80172,0.10914 -0.80172,0.23805 0,0.52692 1.88059,4.97808 2.78825,6.59949 0.53559,0.95674 1.77446,2.78984 2.75306,4.07356 2.83713,3.72171 3.15235,4.39004 3.79304,8.04183 0.47007,2.67928 0.69209,3.3728 1.19305,3.72676 0.82476,0.58273 2.9968,0.55662 4.48662,-0.0539 z"
       id="path34" />
    <path
       style="fill:#000000;stroke-width:0.269162"
       d="m 176.50449,154.99948 c 1.39823,-0.36254 2.58179,-1.00806 2.7687,-1.51006 0.10346,-0.27785 -0.0142,-0.97799 -0.26138,-1.55588 -0.24722,-0.57788 -0.5908,-2.3275 -0.76351,-3.88803 -0.17272,-1.56054 -0.37021,-2.91482 -0.43887,-3.00952 -0.0687,-0.0947 -0.81353,0.11833 -1.65527,0.47342 -1.21355,0.51195 -1.96237,0.64626 -3.61669,0.64874 l -2.08627,0.003 -0.33659,2.04221 c -0.18512,1.12321 -0.52902,2.50716 -0.76424,3.07542 -0.23521,0.56826 -0.42766,1.46809 -0.42766,1.99963 0,0.82365 0.13998,1.03917 0.94749,1.45885 0.75943,0.39469 1.43932,0.48837 3.42553,0.472 1.36292,-0.0112 2.80687,-0.10569 3.20876,-0.2099 z"
       id="path36" />
  </g>
</svg>
